<svg xmlns="http://www.w3.org/2000/svg" viewBox="0 0 64 64" width="64" height="64">
  <defs>
    <linearGradient id="bgGradient" x1="0%" y1="0%" x2="100%" y2="100%">
      <stop offset="0%" style="stop-color:#9333ea;stop-opacity:1" />
      <stop offset="100%" style="stop-color:#3b82f6;stop-opacity:1" />
    </linearGradient>
    <linearGradient id="textGradient" x1="0%" y1="0%" x2="100%" y2="100%">
      <stop offset="0%" style="stop-color:#ffffff;stop-opacity:1" />
      <stop offset="100%" style="stop-color:#e5e7eb;stop-opacity:1" />
    </linearGradient>
    <filter id="glow">
      <feGaussianBlur stdDeviation="2" result="coloredBlur"/>
      <feMerge> 
        <feMergeNode in="coloredBlur"/>
        <feMergeNode in="SourceGraphic"/>
      </feMerge>
    </filter>
  </defs>
  
  <!-- Background circle with gradient -->
  <circle cx="32" cy="32" r="30" fill="url(#bgGradient)" filter="url(#glow)"/>
  
  <!-- Outer ring -->
  <circle cx="32" cy="32" r="30" fill="none" stroke="rgba(255,255,255,0.2)" stroke-width="1"/>
  
  <!-- Blog icon - stylized "B" -->
  <path d="M 20 18 L 20 46 L 35 46 C 40 46 44 42 44 37 C 44 34 42 32 40 31 C 42 30 43 27 43 24 C 43 19 40 18 35 18 L 20 18 Z M 26 23 L 33 23 C 35 23 37 24 37 26 C 37 28 35 29 33 29 L 26 29 Z M 26 34 L 34 34 C 36 34 38 35 38 37 C 38 39 36 40 34 40 L 26 40 Z" fill="url(#textGradient)" filter="url(#glow)"/>
  
  <!-- Decorative dots -->
  <circle cx="48" cy="20" r="2" fill="rgba(255,255,255,0.6)"/>
  <circle cx="50" cy="28" r="1.5" fill="rgba(255,255,255,0.4)"/>
  <circle cx="16" cy="44" r="1.5" fill="rgba(255,255,255,0.4)"/>
  <circle cx="14" cy="36" r="2" fill="rgba(255,255,255,0.6)"/>
</svg>